# 3ds Max Wavefront OBJ Exporter v0.97b - (c)2007 guruware
# 创建的文件:27.09.2026 02:24:45

mtllib b1.mtl

#
# object Box008
#

v  -17.5000 45.5000 15.0000
v  -16.0859 45.5000 15.0000
v  -16.0859 45.5000 13.6109
v  -17.5000 45.5000 13.6109
v  -17.5000 0.0000 15.0000
v  -16.0859 0.0000 15.0000
v  -16.0859 7.4456 15.0000
v  -17.5000 7.4456 15.0000
v  17.5000 0.0000 15.0000
v  17.5000 0.0000 13.6109
v  17.5000 7.4456 13.6109
v  17.5000 7.4456 15.0000
v  17.5000 0.0000 -15.0000
v  16.0883 0.0000 -15.0000
v  16.0883 7.4456 -15.0000
v  17.5000 7.4456 -15.0000
v  -17.5000 0.0000 -15.0000
v  -17.5000 0.0000 -13.7412
v  -17.5000 7.4456 -13.7412
v  -17.5000 7.4456 -15.0000
v  3.8296 45.5000 15.0000
v  16.0883 45.5000 15.0000
v  16.0883 45.5000 13.6109
v  3.8296 45.5000 13.6109
v  3.8296 -0.0000 16.6286
v  16.0883 -0.0000 16.6286
v  16.0883 7.4456 16.6286
v  3.8296 7.4456 16.6286
v  3.8296 0.0000 -15.0000
v  -16.0859 0.0000 -15.0000
v  -16.0859 7.4456 -15.0000
v  3.8296 7.4456 -15.0000
v  3.8296 45.0000 16.6286
v  -16.0859 45.0000 16.6286
v  -16.0859 7.4456 16.6286
v  17.5000 45.0000 -15.0000
v  17.5000 45.0000 -13.7412
v  17.5000 7.4456 -13.7412
v  3.8296 45.0000 -15.0000
v  16.0883 45.0000 -15.0000
v  -17.5000 45.0000 15.0000
v  -17.5000 45.0000 13.6109
v  -17.5000 7.4456 13.6109
v  17.5000 7.4456 16.6286
v  17.5000 45.0000 16.6286
v  16.0883 45.0000 16.6286
v  -17.5000 45.0000 -15.0000
v  -16.0859 45.0000 -15.0000
v  3.8296 45.0000 13.6109
v  3.8296 45.0000 -13.7412
v  -16.0859 45.0000 -13.7412
v  -16.0859 45.0000 13.6109
v  17.5000 0.0000 -13.7412
v  -17.5000 0.0000 13.6109
v  17.5000 45.5000 13.6109
v  17.5000 45.5000 -13.7412
v  16.0883 45.5000 -13.7412
v  17.5000 45.0000 13.6109
v  17.5000 45.0000 15.0000
v  -17.5000 45.0000 -13.7412
v  3.8296 0.0000 15.0000
v  3.8296 7.4456 15.0000
v  -17.5000 45.0000 16.6286
v  -17.5000 7.4456 16.6286
v  -16.0859 45.5000 -15.0000
v  -17.5000 45.5000 -15.0000
v  -17.5000 45.5000 -13.7412
v  -16.0859 45.5000 -13.7412
v  17.5000 45.5000 15.0000
v  17.5000 -0.0000 16.6286
v  16.0883 45.5000 -15.0000
v  3.8296 45.5000 -15.0000
v  3.8296 45.5000 -13.7412
v  17.5000 45.5000 -15.0000
v  16.0883 45.0000 13.6109
v  16.0883 45.0000 -13.7412
v  -16.0859 45.5000 16.6286
v  -17.5000 45.5000 16.6286
v  3.8296 45.5000 16.6286
v  16.0883 45.5000 16.6286
v  17.5000 45.5000 16.6286
v  5.8634 54.9573 0.7814
v  15.8634 54.9573 0.7814
v  15.8634 54.9573 -9.2186
v  5.8634 54.9573 -9.2186
v  5.8634 44.9573 0.7814
v  15.8634 44.9573 0.7814
v  15.8634 44.9573 -9.2186
v  5.8634 44.9573 -9.2186
# 89 vertices

vn -0.7071 0.7071 -0.0000
vn 0.0000 1.0000 -0.0000
vn 0.3015 0.9045 -0.3015
vn -0.7071 0.0000 0.7071
vn 0.0000 0.0000 1.0000
vn 0.0000 -0.7071 0.7071
vn -0.9045 -0.3015 0.3015
vn 1.0000 0.0000 -0.0000
vn 1.0000 -0.0000 -0.0000
vn 0.7071 0.0000 -0.7071
vn 0.0000 0.0000 -1.0000
vn -0.7071 0.0000 -0.7071
vn -1.0000 0.0000 -0.0000
vn -0.3015 0.9045 -0.3015
vn 0.0000 0.7071 -0.7071
vn -0.3015 -0.3015 0.9045
vn -0.0000 0.0000 -1.0000
vn 0.0000 -0.0000 -1.0000
vn -0.0000 -0.0000 1.0000
vn 0.7071 -0.0000 -0.7071
vn 1.0000 -0.0000 0.0000
vn 0.7071 0.0000 0.7071
vn 0.7071 -0.0000 0.7071
vn 0.0000 -0.0000 1.0000
vn -0.7071 -0.0000 -0.7071
vn 0.0000 0.7071 0.7071
vn 0.5774 0.5774 0.5774
vn 0.5774 0.5774 -0.5774
vn 0.7071 0.7071 -0.0000
vn -0.3015 0.9045 0.3015
vn -1.0000 0.0000 0.0000
vn -0.5774 -0.5774 0.5774
vn -0.5773 -0.5774 0.5774
vn -0.5774 0.5774 -0.5773
vn -0.7071 0.7071 0.0000
vn 0.3015 0.9045 0.3015
vn -0.5774 0.5774 -0.5774
vn -0.5774 0.5774 0.5774
vn -0.5773 0.5774 0.5774
vn -0.0000 0.7071 0.7071
# 40 vertex normals

vt 0.3575 0.4561 0.0000
vt 0.3575 0.4432 0.0000
vt 0.3701 0.4432 0.0000
vt 0.3701 0.4561 0.0000
vt 0.3400 0.4855 0.0000
vt 0.3528 0.4855 0.0000
vt 0.3528 0.5529 0.0000
vt 0.3400 0.5529 0.0000
vt 0.6799 0.5769 0.0000
vt 0.6925 0.5769 0.0000
vt 0.6925 0.6443 0.0000
vt 0.6799 0.6443 0.0000
vt 0.0073 0.1447 0.0000
vt 0.0201 0.1447 0.0000
vt 0.0201 0.2121 0.0000
vt 0.0073 0.2121 0.0000
vt 0.0083 0.5743 0.0000
vt 0.0197 0.5743 0.0000
vt 0.0197 0.6417 0.0000
vt 0.0083 0.6417 0.0000
vt 0.3575 0.2629 0.0000
vt 0.3575 0.1519 0.0000
vt 0.3701 0.1519 0.0000
vt 0.3701 0.2629 0.0000
vt 0.5172 0.5751 0.0000
vt 0.6282 0.5751 0.0000
vt 0.6282 0.6425 0.0000
vt 0.5172 0.6425 0.0000
vt 0.1311 0.1447 0.0000
vt 0.3115 0.1447 0.0000
vt 0.3115 0.2121 0.0000
vt 0.1311 0.2121 0.0000
vt 0.5172 0.9826 0.0000
vt 0.3368 0.9826 0.0000
vt 0.3368 0.6425 0.0000
vt 0.9516 0.6443 0.0000
vt 0.9516 0.9844 0.0000
vt 0.9402 0.9844 0.0000
vt 0.9402 0.6443 0.0000
vt 0.1311 0.5522 0.0000
vt 0.0201 0.5522 0.0000
vt 0.2800 0.6417 0.0000
vt 0.2800 0.9818 0.0000
vt 0.2674 0.9818 0.0000
vt 0.2674 0.6417 0.0000
vt 0.6410 0.6425 0.0000
vt 0.6410 0.9826 0.0000
vt 0.6282 0.9826 0.0000
vt 0.3243 0.2121 0.0000
vt 0.3243 0.5522 0.0000
vt 0.3115 0.5522 0.0000
vt 0.8430 0.2991 0.0000
vt 0.8430 0.5468 0.0000
vt 0.6627 0.5468 0.0000
vt 0.6627 0.2991 0.0000
vt 0.9402 0.5769 0.0000
vt 0.2674 0.5743 0.0000
vt 0.2800 0.5743 0.0000
vt 0.3701 0.1391 0.0000
vt 0.6178 0.1391 0.0000
vt 0.6178 0.1519 0.0000
vt 0.6925 0.9844 0.0000
vt 0.6799 0.9844 0.0000
vt 0.0197 0.9818 0.0000
vt 0.5331 0.4855 0.0000
vt 0.5331 0.5529 0.0000
vt 0.3243 0.1447 0.0000
vt 0.3240 0.9826 0.0000
vt 0.3240 0.6425 0.0000
vt 0.6292 0.4432 0.0000
vt 0.6292 0.4561 0.0000
vt 0.6178 0.4561 0.0000
vt 0.6178 0.4432 0.0000
vt 0.3575 0.1391 0.0000
vt 0.6410 0.5751 0.0000
vt 0.0073 0.5522 0.0000
vt 0.6292 0.1519 0.0000
vt 0.6292 0.2629 0.0000
vt 0.6178 0.2629 0.0000
vt 0.9516 0.5769 0.0000
vt 0.6292 0.1391 0.0000
vt 0.0083 0.9818 0.0000
vt 0.9541 0.2991 0.0000
vt 0.9541 0.5468 0.0000
vt 0.3368 0.9871 0.0000
vt 0.3240 0.9871 0.0000
vt 0.5172 0.9871 0.0000
vt 0.6282 0.9871 0.0000
vt 0.6410 0.9871 0.0000
vt 0.6925 0.9889 0.0000
vt 0.6799 0.9889 0.0000
vt 0.9402 0.9889 0.0000
vt 0.9516 0.9889 0.0000
vt 0.0201 0.5567 0.0000
vt 0.0073 0.5567 0.0000
vt 0.1311 0.5567 0.0000
vt 0.3115 0.5567 0.0000
vt 0.3243 0.5567 0.0000
vt 0.0197 0.9864 0.0000
vt 0.0083 0.9864 0.0000
vt 0.2674 0.9864 0.0000
vt 0.2800 0.9864 0.0000
vt 0.4382 0.0443 0.0000
vt 0.6186 0.0443 0.0000
vt 0.6186 0.0489 0.0000
vt 0.4382 0.0489 0.0000
vt 0.2651 0.0524 0.0000
vt 0.0174 0.0524 0.0000
vt 0.0174 0.0479 0.0000
vt 0.2651 0.0479 0.0000
vt 0.6186 0.1059 0.0000
vt 0.4382 0.1059 0.0000
vt 0.4382 0.1014 0.0000
vt 0.6186 0.1014 0.0000
vt 0.3272 0.1059 0.0000
vt 0.3272 0.1014 0.0000
vt 0.0127 0.1006 0.0000
vt 0.2604 0.1006 0.0000
vt 0.2604 0.1052 0.0000
vt 0.0127 0.1052 0.0000
vt 0.3272 0.0443 0.0000
vt 0.3272 0.0489 0.0000
vt 0.6652 0.6443 0.0000
vt 0.6652 0.5769 0.0000
vt 0.6652 0.9844 0.0000
vt 0.6652 0.9889 0.0000
vt 0.3428 0.1519 0.0000
vt 0.3428 0.1391 0.0000
vt 0.3428 0.2629 0.0000
vt 0.3428 0.4432 0.0000
vt 0.3428 0.4561 0.0000
vt 0.2947 0.9818 0.0000
vt 0.2947 0.9864 0.0000
vt 0.2947 0.6417 0.0000
vt 0.3150 0.5984 0.0000
vt 0.3278 0.5984 0.0000
vt 0.3278 0.6131 0.0000
vt 0.3150 0.6131 0.0000
vt 0.5082 0.5984 0.0000
vt 0.5082 0.6131 0.0000
vt 0.5675 0.5545 0.0000
vt 0.5675 0.4871 0.0000
vt 0.5822 0.4871 0.0000
vt 0.5822 0.5545 0.0000
vt 0.7556 0.2815 0.0000
vt 0.6651 0.2815 0.0000
vt 0.6651 0.1909 0.0000
vt 0.7556 0.1909 0.0000
vt 0.5005 0.3277 0.0000
vt 0.5910 0.3277 0.0000
vt 0.5910 0.4183 0.0000
vt 0.5005 0.4183 0.0000
vt 0.5073 0.1961 0.0000
vt 0.5979 0.1961 0.0000
vt 0.5979 0.2867 0.0000
vt 0.5073 0.2867 0.0000
vt 0.3904 0.1963 0.0000
vt 0.4810 0.1963 0.0000
vt 0.4810 0.2868 0.0000
vt 0.3904 0.2868 0.0000
vt 0.3905 0.3262 0.0000
vt 0.4810 0.3262 0.0000
vt 0.4810 0.4167 0.0000
vt 0.3905 0.4167 0.0000
# 164 texture coords

o Box008
g Box008
usemtl 01___Default
s 1
f 1/1/1 2/2/2 3/3/3 4/4/1 
f 5/5/4 6/6/5 7/7/6 8/8/7 
s 2
f 9/9/8 10/10/9 11/11/9 12/12/8 
s 4
f 13/13/10 14/14/11 15/15/11 16/16/10 
s 2
f 17/17/12 18/18/13 19/19/13 20/20/12 
s 1
f 21/21/2 22/22/2 23/23/14 24/24/15 
s 4
f 25/25/4 26/26/5 27/27/5 28/28/16 
f 29/29/17 30/30/11 31/31/18 32/32/11 
f 28/28/16 33/33/19 34/34/5 35/35/6 
s 2
f 16/36/10 36/37/20 37/38/9 38/39/21 
s 4
f 32/32/11 39/40/18 40/41/18 15/15/11 
s 2
f 8/42/7 41/43/13 42/44/13 43/45/13 
s 4
f 44/46/22 45/47/23 46/48/24 27/27/5 
f 20/49/12 47/50/25 48/51/18 31/31/18 
s 1
f 49/52/15 50/53/26 51/54/27 52/55/28 
s 2
f 10/10/9 53/56/21 38/39/21 11/11/9 
f 54/57/13 5/58/4 8/42/7 43/45/13 
s 1
f 55/59/29 56/60/29 57/61/30 23/23/14 
s 2
f 58/62/8 59/63/8 12/12/8 11/11/9 
f 42/44/13 60/64/31 19/19/13 43/45/13 
s 1
f 2/2/2 21/21/2 24/24/15 3/3/3 
f 6/6/5 61/65/4 62/66/32 7/7/6 
s 4
f 30/30/11 17/67/12 20/49/12 31/31/18 
f 34/34/5 63/68/4 64/69/33 35/35/6 
f 48/51/18 39/40/18 32/32/11 31/31/18 
s 1
f 65/70/15 66/71/34 67/72/35 68/73/36 
s 4
f 14/14/11 29/29/17 32/32/11 15/15/11 
s 1
f 22/22/2 69/74/29 55/59/29 23/23/14 
s 4
f 26/26/5 70/75/22 44/46/22 27/27/5 
f 40/41/18 36/76/20 16/16/10 15/15/11 
f 46/48/24 33/33/19 28/28/16 27/27/5 
s 1
f 71/77/15 72/78/15 73/79/26 57/61/30 
s 2
f 18/18/13 54/57/13 43/45/13 19/19/13 
f 37/38/9 58/62/8 11/11/9 38/39/21 
s 1
f 73/79/26 72/78/15 65/70/15 68/73/36 
s 2
f 53/56/21 13/80/10 16/36/10 38/39/21 
s 1
f 56/60/29 74/81/28 71/77/15 57/61/30 
s 2
f 60/64/31 47/82/25 20/20/12 19/19/13 
s 1
f 67/72/35 4/4/1 3/3/3 68/73/36 
f 50/53/26 49/52/15 75/83/37 76/84/38 
s 4
f 63/68/4 34/34/5 77/85/26 78/86/39 
f 34/34/5 33/33/19 79/87/40 77/85/26 
f 33/33/19 46/48/24 80/88/26 79/87/40 
f 46/48/24 45/47/23 81/89/27 80/88/26 
s 2
f 59/63/8 58/62/8 55/90/29 69/91/29 
f 58/62/8 37/38/9 56/92/29 55/90/29 
f 37/38/9 36/37/20 74/93/28 56/92/29 
s 4
f 36/76/20 40/41/18 71/94/15 74/95/28 
f 40/41/18 39/40/18 72/96/15 71/94/15 
f 39/40/18 48/51/18 65/97/15 72/96/15 
f 48/51/18 47/50/25 66/98/34 65/97/15 
s 2
f 47/82/25 60/64/31 67/99/35 66/100/34 
f 60/64/31 42/44/13 4/101/1 67/99/35 
f 42/44/13 41/43/13 1/102/1 4/101/1 
f 49/103/15 52/104/28 3/105/3 24/106/15 
s 4
f 52/107/28 51/108/27 68/109/36 3/110/3 
s 2
f 51/111/27 50/112/26 73/113/26 68/114/36 
f 50/112/26 76/115/38 57/116/30 73/113/26 
s 4
f 76/117/38 75/118/37 23/119/14 57/120/30 
s 2
f 75/121/37 49/103/15 24/106/15 23/122/14 
f 9/9/8 12/12/8 44/123/22 70/124/22 
f 12/12/8 59/63/8 45/125/23 44/123/22 
f 59/63/8 69/91/29 81/126/27 45/125/23 
s 1
f 69/74/29 22/22/2 80/127/26 81/128/27 
f 22/22/2 21/21/2 79/129/40 80/127/26 
f 21/21/2 2/2/2 77/130/26 79/129/40 
f 2/2/2 1/1/1 78/131/39 77/130/26 
s 2
f 1/102/1 41/43/13 63/132/4 78/133/39 
f 41/43/13 8/42/7 64/134/33 63/132/4 
s 8
f 8/135/7 7/136/6 35/137/6 64/138/33 
f 7/136/6 62/139/32 28/140/16 35/137/6 
s 2
f 62/141/32 61/142/4 25/143/4 28/144/16 
s 1
f 82/145/38 83/146/27 84/147/28 85/148/37 
s 2
f 86/149/4 87/150/22 83/151/27 82/152/38 
s 4
f 87/153/22 88/154/10 84/155/28 83/156/27 
s 2
f 88/157/10 89/158/12 85/159/37 84/160/28 
s 4
f 89/161/12 86/162/4 82/163/38 85/164/37 
# 77 polygons

