# 3ds Max Wavefront OBJ Exporter v0.97b - (c)2007 guruware
# 创建的文件:27.09.2026 02:25:36

mtllib b2.mtl

#
# object Box003
#

v  -17.5000 0.0000 10.0000
v  -17.5000 0.0000 9.4655
v  -5.7111 0.0000 9.4655
v  -5.7111 0.0000 10.0000
v  -17.5000 68.0000 10.0000
v  -5.7111 68.0000 10.0000
v  -5.7111 68.0000 9.4655
v  -17.5000 68.0000 9.4655
v  -5.7111 56.0000 10.0000
v  -17.5000 56.0000 10.0000
v  17.5000 0.0000 10.0000
v  17.5000 0.0000 9.4655
v  17.5000 56.0000 9.4655
v  17.5000 56.0000 10.0000
v  17.5000 0.0000 -10.0000
v  16.8947 0.0000 -10.0000
v  16.8947 56.0000 -10.0000
v  17.5000 56.0000 -10.0000
v  -17.5000 0.0000 -10.0000
v  -17.5000 0.0000 -9.4568
v  -17.5000 56.0000 -9.4568
v  -17.5000 56.0000 -10.0000
v  -5.7111 0.0000 -10.0000
v  16.8947 0.0000 -9.4568
v  -5.7111 0.0000 -9.4568
v  16.8947 56.0000 10.0000
v  16.8947 56.0000 9.4655
v  -5.7111 56.0000 9.4655
v  16.8947 0.0000 10.0000
v  -5.7111 56.0000 -10.0000
v  -17.5000 68.0000 -10.0000
v  -5.7111 68.0000 -10.0000
v  -17.5000 68.0000 -9.4568
v  -5.7111 68.0000 -9.4568
v  17.5000 0.0000 -9.4568
v  17.5000 56.0000 -9.4568
v  -17.5000 56.0000 9.4655
v  16.8947 0.0000 9.4655
v  16.8947 56.0000 -9.4568
v  -5.7111 56.0000 -9.4568
v  16.8947 55.6000 -9.4568
v  -5.7111 55.6000 -9.4568
v  -5.7111 55.6000 9.4655
v  16.8947 55.6000 9.4655
v  17.2889 63.8388 3.1193
v  17.2889 63.8388 1.8611
v  17.2889 65.0273 1.8611
v  17.2889 65.0273 3.1193
v  -5.7111 63.8388 3.1193
v  -5.7111 63.8388 1.8611
v  5.2362 63.8388 1.8611
v  5.2362 63.8388 3.1193
v  -5.7111 63.8388 -8.6115
v  -5.7111 65.0273 -8.6115
v  5.2362 65.0273 -8.6115
v  5.2362 63.8388 -8.6115
v  -5.7111 65.0273 -7.1498
v  5.2362 65.0273 -7.1498
v  -5.7111 65.0273 3.1193
v  5.2362 65.0273 3.1193
v  6.7784 63.8388 -8.6115
v  8.6797 63.8388 -8.6115
v  8.6797 63.8388 -7.1498
v  6.7784 63.8388 -7.1498
v  6.7784 65.0273 -8.6115
v  8.6797 65.0273 -8.6115
v  6.7784 65.0273 3.1193
v  8.6797 65.0273 3.1193
v  8.6797 65.0273 1.8611
v  6.7784 65.0273 1.8611
v  6.7784 63.8388 3.1193
v  8.6797 63.8388 3.1193
v  17.2889 63.8388 -7.1498
v  17.2889 63.8388 -8.6115
v  17.2889 65.0273 -8.6115
v  17.2889 65.0273 -7.1498
v  -5.7111 63.8388 -7.1498
v  5.2362 63.8388 -7.1498
v  -5.7111 65.0273 1.8611
v  5.2362 65.0273 1.8611
v  13.3348 63.8388 1.8611
v  13.3348 63.8388 -7.1498
v  13.3348 65.0273 -8.6115
v  13.3348 65.0273 -7.1498
v  13.3348 65.0273 1.8611
v  13.3348 63.8388 3.1193
v  10.1437 63.8388 -8.6115
v  10.1437 63.8388 -7.1498
v  10.1437 65.0273 -8.6115
v  10.1437 65.0273 3.1193
v  10.1437 65.0273 1.8611
v  10.1437 63.8388 3.1193
v  8.6797 63.8388 1.8611
v  6.7784 63.8388 1.8611
v  6.7784 65.0273 -7.1498
v  8.6797 65.0273 -7.1498
v  10.1437 65.0273 -7.1498
v  10.1437 63.8388 1.8611
v  11.8420 63.8388 -8.6115
v  11.8420 63.8388 -7.1498
v  11.8420 65.0273 -8.6115
v  11.8420 65.0273 3.1193
v  11.8420 65.0273 1.8611
v  11.8420 63.8388 3.1193
v  11.8420 63.8388 1.8611
v  11.8420 65.0273 -7.1498
v  13.3348 63.8388 -8.6115
v  13.3348 65.0273 3.1193
v  15.7973 63.8388 -5.7367
v  15.7973 63.8388 -3.9668
v  15.7973 60.7234 -3.9668
v  15.7973 60.7234 -5.7367
v  15.7973 63.8388 0.4480
v  14.8263 63.8388 0.4480
v  14.8263 60.7234 0.4480
v  15.7973 60.7234 0.4480
v  14.8263 63.8388 -1.7067
v  14.8263 60.7234 -1.7067
v  14.8263 63.8388 -5.7367
v  14.8263 60.7234 -5.7367
v  15.7973 63.8388 -2.8065
v  15.7973 63.8388 -2.0434
v  15.7963 61.2465 -2.0338
v  15.7973 61.5112 -2.8065
v  14.8263 63.8388 -2.8065
v  14.8263 63.8388 -3.5999
v  14.8285 61.2749 -3.5982
v  14.8263 61.5112 -2.8065
v  14.8263 57.8497 0.4480
v  15.7973 57.8497 0.4480
v  15.7973 57.8497 -5.7367
v  14.8263 57.8497 -5.7367
v  15.7973 57.8497 -1.7067
v  15.7973 60.7234 -1.7067
v  14.8263 57.8497 -3.9668
v  14.8263 60.7234 -3.9668
v  15.7973 55.5931 -1.7067
v  15.7973 55.5931 -2.8065
v  15.7973 55.5931 -3.9668
v  15.7973 57.8497 -3.9668
v  14.8263 55.5931 0.4480
v  15.7973 55.5931 0.4480
v  14.8263 55.5931 -3.9668
v  14.8263 55.5931 -2.8065
v  14.8263 55.5931 -1.7067
v  14.8263 57.8497 -1.7067
v  15.7973 55.5931 -5.7367
v  14.8263 55.5931 -5.7367
v  14.8263 63.8388 -2.0434
v  14.8280 61.2465 -2.0338
v  15.7973 63.8388 -1.7067
v  15.7973 63.8388 -3.5999
v  15.7960 61.2749 -3.5982
v  14.8263 63.8388 -3.9668
v  14.6379 20.0690 14.1936
v  15.4814 20.0690 14.1936
v  15.4814 51.6258 14.1936
v  14.6379 51.6258 14.1936
v  14.6379 20.0690 10.0000
v  15.4814 20.0690 10.0000
v  15.4814 51.6258 10.0000
v  14.6379 51.6258 10.0000
v  -6.5713 0.0070 11.4756
v  -5.7277 0.0070 11.4756
v  -5.7277 51.4710 11.4756
v  -6.5713 51.4710 11.4756
v  -6.5713 0.0070 10.0000
v  -5.7277 0.0070 10.0000
v  -5.7331 0.0069 10.8669
v  -6.5767 0.0069 10.8669
v  -5.7277 56.0460 10.0000
v  -5.7284 54.7584 10.8669
v  -6.5713 56.0460 10.0000
v  -6.5734 54.7583 10.8669
v  -10.1955 0.0070 11.4756
v  -9.3519 0.0070 11.4756
v  -9.3519 51.4710 11.4756
v  -10.1955 51.4710 11.4756
v  -10.1955 0.0070 10.0000
v  -9.3519 0.0070 10.0000
v  -9.3573 0.0069 10.8669
v  -10.2009 0.0069 10.8669
v  -9.3519 56.0460 10.0000
v  -9.3526 54.7584 10.8669
v  -10.1955 56.0460 10.0000
v  -10.1977 54.7583 10.8669
v  -13.9015 0.0070 11.4756
v  -13.0579 0.0070 11.4756
v  -13.0579 51.4710 11.4756
v  -13.9015 51.4710 11.4756
v  -13.9015 0.0070 10.0000
v  -13.0579 0.0070 10.0000
v  -13.0633 0.0069 10.8669
v  -13.9069 0.0069 10.8669
v  -13.0579 56.0460 10.0000
v  -13.0586 54.7584 10.8669
v  -13.9015 56.0460 10.0000
v  -13.9036 54.7583 10.8669
v  -17.5727 0.0070 11.4756
v  -16.7291 0.0070 11.4756
v  -16.7291 51.4710 11.4756
v  -17.5727 51.4710 11.4756
v  -17.5727 0.0070 10.0000
v  -16.7291 0.0070 10.0000
v  -16.7345 0.0069 10.8669
v  -17.5781 0.0069 10.8669
v  -16.7291 56.0460 10.0000
v  -16.7297 54.7584 10.8669
v  -17.5727 56.0460 10.0000
v  -17.5748 54.7583 10.8669
# 210 vertices

vn -0.5774 -0.5774 0.5774
vn -0.7071 -0.7071 -0.0000
vn 0.0000 -1.0000 -0.0000
vn 0.0000 -0.7071 0.7071
vn -0.5774 0.5774 0.5774
vn 0.5774 0.5774 0.5774
vn 0.7071 0.7071 0.0000
vn -0.7071 0.7071 -0.0000
vn 0.3015 0.3015 0.9045
vn -0.7071 0.0000 0.7071
vn 0.5774 -0.5774 0.5774
vn 0.7071 -0.7071 -0.0000
vn 0.7071 0.7071 -0.0000
vn 0.5774 -0.5774 -0.5774
vn 0.0000 -0.7071 -0.7071
vn 0.0000 0.7071 -0.7071
vn 0.5774 0.5774 -0.5774
vn -0.5774 -0.5774 -0.5774
vn -1.0000 0.0000 -0.0000
vn -0.7071 0.0000 -0.7071
vn 0.0000 0.7071 0.7071
vn -0.3015 0.9045 -0.3015
vn 0.9045 0.3015 -0.3015
vn 0.3015 0.3015 -0.9045
vn -0.5774 0.5774 -0.5774
vn -0.3015 0.9045 0.3015
vn 0.9045 0.3015 0.3015
vn -0.0000 -0.7071 0.7071
vn 0.3015 -0.9045 -0.3015
vn 0.0000 1.0000 -0.0000
vn 0.3015 0.9045 0.3015
vn -0.0000 0.7071 0.7071
vn 0.3015 -0.9045 0.3015
vn -0.3015 -0.9045 0.3015
vn 0.3015 0.9045 -0.3015
vn -0.3015 -0.9045 -0.3015
vn 0.7071 -0.0000 -0.7071
vn 1.0000 0.0000 -0.0000
vn 0.7786 -0.1819 0.6005
vn 0.7071 0.0000 0.7071
vn -0.7747 -0.1741 -0.6078
vn -0.7071 -0.0000 -0.7071
vn 1.0000 -0.0004 -0.0000
vn 0.7898 -0.4797 -0.3823
vn 0.7829 -0.6220 -0.0126
vn -1.0000 -0.0008 -0.0000
vn -0.7902 -0.4918 0.3657
vn -0.7831 -0.6218 -0.0126
vn 0.7071 0.0000 -0.7071
vn 0.7748 -0.1742 -0.6078
vn -0.9045 0.3015 0.3015
vn -0.7786 -0.1818 0.6006
vn -0.9045 0.3015 -0.3015
vn -1.0000 -0.0007 -0.0000
vn -0.7892 -0.4798 -0.3834
vn 1.0000 -0.0005 -0.0000
vn 0.7909 -0.4916 0.3645
vn 0.5773 0.5773 0.5774
vn -0.5773 0.5773 0.5774
vn -0.7071 0.7071 0.0000
vn -0.5745 -0.5778 0.5797
vn 0.5801 -0.5769 0.5751
vn 0.6875 0.0665 0.7232
vn -0.6858 0.0663 0.7248
vn -0.7057 -0.7085 -0.0044
vn 0.7085 -0.7057 0.0044
vn 0.7054 -0.7089 -0.0009
vn -0.7088 -0.7054 0.0009
vn 0.3530 0.5224 0.7762
vn 0.6639 0.2827 0.6924
vn -0.3529 0.5229 0.7759
vn -0.6649 0.2829 0.6912
vn 0.5802 -0.5768 0.5750
vn 0.7086 -0.7056 0.0044
vn 0.7053 -0.7089 -0.0009
# 75 vertex normals

vt 0.4355 0.9805 0.0000
vt 0.4355 0.9763 0.0000
vt 0.5284 0.9763 0.0000
vt 0.5284 0.9805 0.0000
vt 0.2671 0.5543 0.0000
vt 0.3600 0.5543 0.0000
vt 0.3600 0.5585 0.0000
vt 0.2671 0.5585 0.0000
vt 0.2665 0.0049 0.0000
vt 0.3593 0.0049 0.0000
vt 0.3593 0.4459 0.0000
vt 0.2665 0.4459 0.0000
vt 0.5566 0.0054 0.0000
vt 0.5608 0.0054 0.0000
vt 0.5608 0.4465 0.0000
vt 0.5566 0.4465 0.0000
vt 0.7194 0.0054 0.0000
vt 0.7242 0.0054 0.0000
vt 0.7242 0.4464 0.0000
vt 0.7194 0.4464 0.0000
vt 0.7318 0.4593 0.0000
vt 0.7361 0.4593 0.0000
vt 0.7361 0.9003 0.0000
vt 0.7318 0.9003 0.0000
vt 0.5284 0.8230 0.0000
vt 0.7064 0.8230 0.0000
vt 0.7064 0.8272 0.0000
vt 0.5284 0.8272 0.0000
vt 0.7148 0.4737 0.0000
vt 0.7148 0.6518 0.0000
vt 0.7105 0.6518 0.0000
vt 0.7105 0.4737 0.0000
vt 0.3660 0.0055 0.0000
vt 0.5441 0.0055 0.0000
vt 0.5441 0.4466 0.0000
vt 0.3660 0.4466 0.0000
vt 0.9023 0.0054 0.0000
vt 0.9951 0.0054 0.0000
vt 0.9951 0.4464 0.0000
vt 0.9023 0.4464 0.0000
vt 0.3593 0.5404 0.0000
vt 0.2665 0.5404 0.0000
vt 0.3761 0.4619 0.0000
vt 0.3803 0.4619 0.0000
vt 0.3803 0.5564 0.0000
vt 0.3761 0.5564 0.0000
vt 0.9951 0.5409 0.0000
vt 0.9023 0.5409 0.0000
vt 0.7361 0.9948 0.0000
vt 0.7318 0.9948 0.0000
vt 0.4355 0.8272 0.0000
vt 0.3600 0.7075 0.0000
vt 0.2671 0.7075 0.0000
vt 0.7098 0.0054 0.0000
vt 0.7098 0.4465 0.0000
vt 0.8851 0.4593 0.0000
vt 0.8893 0.4593 0.0000
vt 0.8893 0.9003 0.0000
vt 0.8851 0.9003 0.0000
vt 0.7112 0.9763 0.0000
vt 0.7112 0.9805 0.0000
vt 0.7064 0.9805 0.0000
vt 0.7064 0.9763 0.0000
vt 0.7105 0.6565 0.0000
vt 0.5615 0.6565 0.0000
vt 0.5615 0.6518 0.0000
vt 0.5294 0.4619 0.0000
vt 0.5294 0.5564 0.0000
vt 0.8893 0.9948 0.0000
vt 0.8851 0.9948 0.0000
vt 0.7112 0.8272 0.0000
vt 0.4355 0.8230 0.0000
vt 0.3600 0.7118 0.0000
vt 0.2671 0.7118 0.0000
vt 0.7141 0.0054 0.0000
vt 0.7141 0.4465 0.0000
vt 0.5572 0.6565 0.0000
vt 0.5572 0.6518 0.0000
vt 0.5336 0.4619 0.0000
vt 0.5336 0.5564 0.0000
vt 0.7112 0.8230 0.0000
vt 0.7148 0.6565 0.0000
vt 0.5488 0.0055 0.0000
vt 0.5488 0.4466 0.0000
vt 0.3828 0.7805 0.0000
vt 0.3828 0.6024 0.0000
vt 0.5318 0.6024 0.0000
vt 0.5318 0.7805 0.0000
vt 0.5572 0.4737 0.0000
vt 0.5615 0.4737 0.0000
vt 0.6591 0.4659 0.0000
vt 0.6591 0.6149 0.0000
vt 0.6559 0.6149 0.0000
vt 0.6559 0.4659 0.0000
vt 0.5804 0.6315 0.0000
vt 0.5804 0.4535 0.0000
vt 0.5836 0.4535 0.0000
vt 0.5836 0.6315 0.0000
vt 0.6893 0.4659 0.0000
vt 0.6893 0.6149 0.0000
vt 0.6862 0.6149 0.0000
vt 0.6862 0.4659 0.0000
vt 0.6171 0.4535 0.0000
vt 0.6171 0.6315 0.0000
vt 0.6140 0.6315 0.0000
vt 0.6140 0.4535 0.0000
vt 0.1958 0.9801 0.0000
vt 0.1958 0.9702 0.0000
vt 0.2052 0.9702 0.0000
vt 0.2052 0.9801 0.0000
vt 0.0058 0.8800 0.0000
vt 0.0058 0.8701 0.0000
vt 0.0920 0.8701 0.0000
vt 0.0920 0.8800 0.0000
vt 0.0065 0.9959 0.0000
vt 0.0065 0.9865 0.0000
vt 0.0927 0.9865 0.0000
vt 0.0927 0.9959 0.0000
vt 0.0058 0.9806 0.0000
vt 0.0058 0.9691 0.0000
vt 0.0920 0.9691 0.0000
vt 0.0920 0.9806 0.0000
vt 0.0059 0.7802 0.0000
vt 0.0059 0.7708 0.0000
vt 0.0921 0.7708 0.0000
vt 0.0921 0.7802 0.0000
vt 0.1042 0.7876 0.0000
vt 0.1191 0.7876 0.0000
vt 0.1191 0.7992 0.0000
vt 0.1042 0.7992 0.0000
vt 0.1049 0.9865 0.0000
vt 0.1198 0.9865 0.0000
vt 0.1198 0.9959 0.0000
vt 0.1049 0.9959 0.0000
vt 0.1041 0.8882 0.0000
vt 0.1191 0.8882 0.0000
vt 0.1191 0.8981 0.0000
vt 0.1041 0.8981 0.0000
vt 0.1043 0.7708 0.0000
vt 0.1192 0.7708 0.0000
vt 0.1192 0.7802 0.0000
vt 0.1043 0.7802 0.0000
vt 0.1958 0.8993 0.0000
vt 0.1958 0.8877 0.0000
vt 0.2052 0.8877 0.0000
vt 0.2052 0.8993 0.0000
vt 0.0058 0.7992 0.0000
vt 0.0058 0.7876 0.0000
vt 0.0920 0.7876 0.0000
vt 0.0920 0.7992 0.0000
vt 0.0058 0.8981 0.0000
vt 0.0920 0.8981 0.0000
vt 0.1869 0.7992 0.0000
vt 0.1869 0.8701 0.0000
vt 0.1558 0.8701 0.0000
vt 0.1558 0.7992 0.0000
vt 0.1869 0.9691 0.0000
vt 0.1869 0.9806 0.0000
vt 0.1558 0.9806 0.0000
vt 0.1558 0.9691 0.0000
vt 0.1869 0.8981 0.0000
vt 0.1558 0.8981 0.0000
vt 0.0058 0.8882 0.0000
vt 0.0920 0.8882 0.0000
vt 0.1869 0.8800 0.0000
vt 0.1558 0.8800 0.0000
vt 0.1307 0.7876 0.0000
vt 0.1307 0.7992 0.0000
vt 0.1314 0.9865 0.0000
vt 0.1314 0.9959 0.0000
vt 0.1306 0.8882 0.0000
vt 0.1306 0.8981 0.0000
vt 0.1308 0.7708 0.0000
vt 0.1308 0.7802 0.0000
vt 0.1191 0.8701 0.0000
vt 0.1042 0.8701 0.0000
vt 0.1191 0.9806 0.0000
vt 0.1041 0.9806 0.0000
vt 0.1041 0.9691 0.0000
vt 0.1191 0.9691 0.0000
vt 0.1191 0.8800 0.0000
vt 0.1042 0.8800 0.0000
vt 0.1306 0.9806 0.0000
vt 0.1306 0.9691 0.0000
vt 0.1307 0.8800 0.0000
vt 0.1307 0.8701 0.0000
vt 0.1440 0.7876 0.0000
vt 0.1440 0.7992 0.0000
vt 0.1447 0.9865 0.0000
vt 0.1447 0.9959 0.0000
vt 0.1440 0.8882 0.0000
vt 0.1440 0.8981 0.0000
vt 0.1442 0.7708 0.0000
vt 0.1442 0.7802 0.0000
vt 0.1440 0.8701 0.0000
vt 0.1440 0.9806 0.0000
vt 0.1440 0.9691 0.0000
vt 0.1440 0.8800 0.0000
vt 0.1558 0.7876 0.0000
vt 0.1565 0.9865 0.0000
vt 0.1565 0.9959 0.0000
vt 0.1558 0.8882 0.0000
vt 0.1559 0.7708 0.0000
vt 0.1559 0.7802 0.0000
vt 0.1869 0.7876 0.0000
vt 0.1876 0.9865 0.0000
vt 0.1876 0.9959 0.0000
vt 0.1869 0.8882 0.0000
vt 0.1870 0.7708 0.0000
vt 0.1870 0.7802 0.0000
vt 0.2192 0.9085 0.0000
vt 0.2192 0.9795 0.0000
vt 0.2099 0.9795 0.0000
vt 0.2099 0.9085 0.0000
vt 0.2855 0.9780 0.0000
vt 0.2855 0.9070 0.0000
vt 0.2949 0.9070 0.0000
vt 0.2949 0.9780 0.0000
vt 0.2555 0.9076 0.0000
vt 0.2555 0.9786 0.0000
vt 0.2462 0.9786 0.0000
vt 0.2462 0.9076 0.0000
vt 0.3046 0.9788 0.0000
vt 0.3046 0.9078 0.0000
vt 0.3140 0.9078 0.0000
vt 0.3140 0.9788 0.0000
vt 0.2756 0.9085 0.0000
vt 0.2756 0.9795 0.0000
vt 0.2662 0.9795 0.0000
vt 0.2662 0.9085 0.0000
vt 0.2266 0.9787 0.0000
vt 0.2266 0.9077 0.0000
vt 0.2359 0.9077 0.0000
vt 0.2359 0.9787 0.0000
vt 0.2215 0.9857 0.0000
vt 0.2215 0.9951 0.0000
vt 0.2094 0.9951 0.0000
vt 0.2094 0.9857 0.0000
vt 0.2961 0.9850 0.0000
vt 0.2961 0.9944 0.0000
vt 0.2845 0.9944 0.0000
vt 0.2845 0.9850 0.0000
vt 0.2770 0.9847 0.0000
vt 0.2770 0.9941 0.0000
vt 0.2653 0.9941 0.0000
vt 0.2653 0.9847 0.0000
vt 0.2470 0.9942 0.0000
vt 0.2470 0.9848 0.0000
vt 0.2586 0.9848 0.0000
vt 0.2586 0.9942 0.0000
vt 0.2399 0.9849 0.0000
vt 0.2399 0.9942 0.0000
vt 0.2282 0.9942 0.0000
vt 0.2282 0.9849 0.0000
vt 0.1922 0.9954 0.0000
vt 0.1922 0.9860 0.0000
vt 0.2044 0.9860 0.0000
vt 0.2044 0.9954 0.0000
vt 0.1277 0.7531 0.0000
vt 0.1137 0.7531 0.0000
vt 0.1137 0.7285 0.0000
vt 0.1277 0.7285 0.0000
vt 0.0709 0.7525 0.0000
vt 0.0632 0.7525 0.0000
vt 0.0632 0.7280 0.0000
vt 0.0709 0.7280 0.0000
vt 0.0551 0.7526 0.0000
vt 0.0381 0.7526 0.0000
vt 0.0381 0.7281 0.0000
vt 0.0551 0.7281 0.0000
vt 0.1418 0.7531 0.0000
vt 0.1342 0.7531 0.0000
vt 0.1342 0.7286 0.0000
vt 0.1418 0.7286 0.0000
vt 0.1046 0.7531 0.0000
vt 0.0986 0.7531 0.0000
vt 0.0985 0.7326 0.0000
vt 0.1046 0.7347 0.0000
vt 0.0295 0.7526 0.0000
vt 0.0232 0.7526 0.0000
vt 0.0232 0.7324 0.0000
vt 0.0295 0.7343 0.0000
vt 0.0632 0.7053 0.0000
vt 0.0709 0.7053 0.0000
vt 0.1342 0.7059 0.0000
vt 0.1418 0.7059 0.0000
vt 0.0790 0.7285 0.0000
vt 0.0790 0.7059 0.0000
vt 0.0959 0.7059 0.0000
vt 0.0959 0.7285 0.0000
vt 0.0064 0.7281 0.0000
vt 0.0064 0.7054 0.0000
vt 0.0203 0.7054 0.0000
vt 0.0203 0.7281 0.0000
vt 0.0959 0.6881 0.0000
vt 0.1046 0.6881 0.0000
vt 0.1137 0.6881 0.0000
vt 0.1137 0.7059 0.0000
vt 0.0632 0.6876 0.0000
vt 0.0709 0.6876 0.0000
vt 0.0203 0.6877 0.0000
vt 0.0295 0.6877 0.0000
vt 0.0381 0.6877 0.0000
vt 0.0381 0.7054 0.0000
vt 0.1342 0.6882 0.0000
vt 0.1418 0.6882 0.0000
vt 0.0790 0.6881 0.0000
vt 0.0064 0.6877 0.0000
vt 0.0355 0.7526 0.0000
vt 0.0356 0.7322 0.0000
vt 0.0959 0.7531 0.0000
vt 0.0790 0.7531 0.0000
vt 0.0551 0.7054 0.0000
vt 0.0551 0.6877 0.0000
vt 0.1109 0.7531 0.0000
vt 0.1108 0.7329 0.0000
vt 0.0203 0.7526 0.0000
vt 0.0064 0.7526 0.0000
vt 0.1277 0.7059 0.0000
vt 0.1277 0.6881 0.0000
vt 0.1840 0.7436 0.0000
vt 0.1904 0.7436 0.0000
vt 0.1904 0.7512 0.0000
vt 0.1840 0.7512 0.0000
vt 0.1774 0.7512 0.0000
vt 0.1774 0.7436 0.0000
vt 0.2455 0.7505 0.0000
vt 0.2277 0.7505 0.0000
vt 0.2277 0.7429 0.0000
vt 0.2455 0.7429 0.0000
vt 0.1952 0.7512 0.0000
vt 0.1952 0.7436 0.0000
vt 0.2179 0.7436 0.0000
vt 0.2179 0.7512 0.0000
vt 0.1722 0.7436 0.0000
vt 0.1722 0.7512 0.0000
vt 0.1496 0.7512 0.0000
vt 0.1496 0.7436 0.0000
vt 0.9451 0.5660 0.0000
vt 0.9517 0.5660 0.0000
vt 0.9517 0.8146 0.0000
vt 0.9451 0.8146 0.0000
vt 0.9490 0.8276 0.0000
vt 0.9490 0.8210 0.0000
vt 0.9821 0.8210 0.0000
vt 0.9821 0.8276 0.0000
vt 0.9918 0.5669 0.0000
vt 0.9918 0.8154 0.0000
vt 0.9587 0.8154 0.0000
vt 0.9587 0.5669 0.0000
vt 0.9376 0.8210 0.0000
vt 0.9376 0.8276 0.0000
vt 0.9045 0.8276 0.0000
vt 0.9045 0.8210 0.0000
vt 0.9378 0.5663 0.0000
vt 0.9378 0.8148 0.0000
vt 0.9047 0.8148 0.0000
vt 0.9047 0.5663 0.0000
vt 0.2251 0.0020 0.0000
vt 0.2318 0.0020 0.0000
vt 0.2318 0.4073 0.0000
vt 0.2251 0.4073 0.0000
vt 0.0394 0.4519 0.0000
vt 0.0461 0.4519 0.0000
vt 0.0460 0.4588 0.0000
vt 0.0394 0.4588 0.0000
vt 0.2543 0.0020 0.0000
vt 0.2543 0.4434 0.0000
vt 0.2475 0.4333 0.0000
vt 0.2475 0.0020 0.0000
vt 0.2318 0.4459 0.0000
vt 0.2251 0.4459 0.0000
vt 0.2251 0.4337 0.0000
vt 0.2318 0.4337 0.0000
vt 0.2033 0.4433 0.0000
vt 0.2033 0.0020 0.0000
vt 0.2101 0.0020 0.0000
vt 0.2101 0.4332 0.0000
vt 0.0461 0.4636 0.0000
vt 0.0394 0.4636 0.0000
vt 0.2427 0.4074 0.0000
vt 0.2427 0.0020 0.0000
vt 0.2149 0.0020 0.0000
vt 0.2149 0.4073 0.0000
vt 0.1586 0.0021 0.0000
vt 0.1652 0.0021 0.0000
vt 0.1652 0.4075 0.0000
vt 0.1586 0.4075 0.0000
vt 0.0283 0.4522 0.0000
vt 0.0349 0.4522 0.0000
vt 0.0349 0.4590 0.0000
vt 0.0282 0.4590 0.0000
vt 0.1881 0.0022 0.0000
vt 0.1881 0.4435 0.0000
vt 0.1813 0.4334 0.0000
vt 0.1813 0.0022 0.0000
vt 0.1652 0.4460 0.0000
vt 0.1586 0.4460 0.0000
vt 0.1585 0.4338 0.0000
vt 0.1652 0.4338 0.0000
vt 0.1342 0.4434 0.0000
vt 0.1342 0.0020 0.0000
vt 0.1410 0.0020 0.0000
vt 0.1410 0.4332 0.0000
vt 0.0349 0.4638 0.0000
vt 0.0283 0.4638 0.0000
vt 0.1765 0.4075 0.0000
vt 0.1765 0.0022 0.0000
vt 0.1458 0.0020 0.0000
vt 0.1458 0.4073 0.0000
vt 0.0902 0.0019 0.0000
vt 0.0968 0.0019 0.0000
vt 0.0968 0.4072 0.0000
vt 0.0902 0.4072 0.0000
vt 0.0164 0.4522 0.0000
vt 0.0231 0.4522 0.0000
vt 0.0230 0.4590 0.0000
vt 0.0164 0.4590 0.0000
vt 0.1215 0.0018 0.0000
vt 0.1215 0.4431 0.0000
vt 0.1147 0.4330 0.0000
vt 0.1147 0.0018 0.0000
vt 0.0968 0.4458 0.0000
vt 0.0902 0.4458 0.0000
vt 0.0901 0.4336 0.0000
vt 0.0968 0.4336 0.0000
vt 0.0686 0.4433 0.0000
vt 0.0686 0.0019 0.0000
vt 0.0754 0.0019 0.0000
vt 0.0754 0.4331 0.0000
vt 0.0231 0.4638 0.0000
vt 0.0164 0.4638 0.0000
vt 0.1099 0.4071 0.0000
vt 0.1099 0.0018 0.0000
vt 0.0802 0.0019 0.0000
vt 0.0802 0.4072 0.0000
vt 0.0274 0.0023 0.0000
vt 0.0341 0.0023 0.0000
vt 0.0341 0.4076 0.0000
vt 0.0274 0.4076 0.0000
vt 0.0033 0.4522 0.0000
vt 0.0099 0.4522 0.0000
vt 0.0099 0.4590 0.0000
vt 0.0032 0.4590 0.0000
vt 0.0558 0.0021 0.0000
vt 0.0558 0.4435 0.0000
vt 0.0490 0.4333 0.0000
vt 0.0490 0.0021 0.0000
vt 0.0341 0.4461 0.0000
vt 0.0274 0.4461 0.0000
vt 0.0274 0.4339 0.0000
vt 0.0341 0.4339 0.0000
vt 0.0056 0.4438 0.0000
vt 0.0056 0.0025 0.0000
vt 0.0124 0.0025 0.0000
vt 0.0124 0.4337 0.0000
vt 0.0099 0.4638 0.0000
vt 0.0033 0.4638 0.0000
vt 0.0442 0.4074 0.0000
vt 0.0442 0.0021 0.0000
vt 0.0172 0.0025 0.0000
vt 0.0172 0.4078 0.0000
# 462 texture coords

o Box003
g Box003
usemtl 01___Default
s 2
f 1/1/1 2/2/2 3/3/3 4/4/4 
s 4
f 5/5/5 6/6/6 7/7/7 8/8/8 
s 8
f 1/9/1 4/10/4 9/11/9 10/12/10 
s 16
f 11/13/11 12/14/12 13/15/13 14/16/6 
s 32
f 15/17/14 16/18/15 17/19/16 18/20/17 
s 64
f 19/21/18 20/22/2 21/23/19 22/24/20 
s 2
f 23/25/15 16/26/15 24/27/3 25/28/3 
s 4
f 9/29/9 26/30/21 27/31/22 28/32/23 
s 8
f 4/33/4 29/34/4 26/35/21 9/36/9 
s 32
f 23/37/15 19/38/18 22/39/20 30/40/24 
s off
f 10/12/10 9/11/9 6/41/6 5/42/5 
f 9/43/9 28/44/23 7/45/7 6/46/6 
f 30/40/24 22/39/20 31/47/25 32/48/17 
f 22/24/20 21/23/19 33/49/8 31/50/25 
s 2
f 2/2/2 20/51/2 25/28/3 3/3/3 
s 4
f 7/7/7 34/52/7 33/53/8 8/8/8 
s 16
f 12/14/12 35/54/12 36/55/13 13/15/13 
s 64
f 2/56/2 1/57/1 10/58/10 37/59/19 
s 2
f 12/60/12 11/61/11 29/62/4 38/63/3 
s 4
f 13/64/13 36/65/13 39/66/26 27/31/22 
s off
f 28/44/23 40/67/27 34/68/7 7/45/7 
f 37/59/19 10/58/10 5/69/5 8/70/8 
s 64
f 20/22/2 2/56/2 37/59/19 21/23/19 
s 2
f 35/71/12 12/60/12 38/63/3 24/27/3 
s off
f 21/23/19 37/59/19 8/70/8 33/49/8 
s 2
f 20/51/2 19/72/18 23/25/15 25/28/3 
s 4
f 34/52/7 32/73/17 31/74/25 33/53/8 
s 16
f 35/54/12 15/75/14 18/76/17 36/55/13 
s 4
f 36/65/13 18/77/17 17/78/16 39/66/26 
s off
f 40/67/27 30/79/24 32/80/17 34/68/7 
s 32
f 16/18/15 23/37/15 30/40/24 17/19/16 
s 2
f 16/26/15 15/81/14 35/71/12 24/27/3 
s 4
f 26/30/21 14/82/6 13/64/13 27/31/22 
s 8
f 29/34/4 11/83/11 14/84/6 26/35/21 
s 2
f 29/62/4 4/4/4 3/3/3 38/63/3 
s 4
f 41/85/5 42/86/6 43/87/17 44/88/25 
s 2
f 38/63/3 3/3/3 25/28/3 24/27/3 
s 4
f 17/78/16 30/89/24 40/90/27 39/66/26 
s off
f 40/91/27 28/92/23 43/93/17 42/94/6 
f 28/95/23 27/96/22 44/97/25 43/98/17 
f 27/99/22 39/100/26 41/101/5 44/102/25 
f 39/103/26 40/104/27 42/105/6 41/106/5 
f 45/107/11 46/108/12 47/109/13 48/110/6 
f 49/111/28 50/112/3 51/113/29 52/114/28 
f 53/115/15 54/116/16 55/117/16 56/118/15 
f 54/119/16 57/120/30 58/121/31 55/122/16 
f 59/123/32 49/124/28 52/125/28 60/126/32 
f 61/127/15 62/128/15 63/129/33 64/130/34 
f 65/131/16 66/132/16 62/133/15 61/134/15 
f 67/135/21 68/136/21 69/137/35 70/138/22 
f 71/139/4 72/140/4 68/141/21 67/142/21 
f 73/143/12 74/144/14 75/145/17 76/146/13 
f 77/147/3 53/148/15 56/149/15 78/150/33 
f 57/120/30 79/151/30 80/152/35 58/121/31 
f 73/153/12 46/154/12 81/155/36 82/156/34 
f 76/157/13 75/158/17 83/159/16 84/160/26 
f 46/108/12 73/143/12 76/146/13 47/109/13 
f 50/112/3 77/147/3 78/150/33 51/113/29 
f 47/161/13 76/157/13 84/160/26 85/162/22 
f 79/151/30 59/163/32 60/164/32 80/152/35 
f 46/154/12 45/165/11 86/166/28 81/155/36 
f 62/128/15 87/167/15 88/168/34 63/129/33 
f 66/132/16 89/169/16 87/170/15 62/133/15 
f 68/136/21 90/171/21 91/172/22 69/137/35 
f 72/140/4 92/173/4 90/174/21 68/141/21 
f 93/175/29 94/176/36 64/130/34 63/129/33 
f 66/177/16 65/178/16 95/179/26 96/180/31 
f 96/180/31 95/179/26 70/138/22 69/137/35 
f 72/181/4 71/182/4 94/176/36 93/175/29 
f 89/183/16 66/177/16 96/180/31 97/184/26 
f 92/185/4 72/181/4 93/175/29 98/186/36 
f 87/167/15 99/187/15 100/188/33 88/168/34 
f 89/169/16 101/189/16 99/190/15 87/170/15 
f 90/171/21 102/191/32 103/192/35 91/172/22 
f 92/173/4 104/193/28 102/194/32 90/174/21 
f 51/113/29 94/176/36 71/182/4 52/114/28 
f 55/117/16 65/131/16 61/134/15 56/118/15 
f 58/121/31 95/179/26 65/178/16 55/122/16 
f 52/125/28 71/139/4 67/142/21 60/126/32 
f 56/149/15 61/127/15 64/130/34 78/150/33 
f 60/164/32 67/135/21 70/138/22 80/152/35 
f 105/195/29 98/186/36 88/168/34 100/188/33 
f 101/196/16 89/183/16 97/184/26 106/197/31 
f 106/197/31 97/184/26 91/172/22 103/192/35 
f 104/198/28 92/185/4 98/186/36 105/195/29 
f 99/187/15 107/199/15 82/156/34 100/188/33 
f 101/189/16 83/200/16 107/201/15 99/190/15 
f 102/191/32 108/202/32 85/162/22 103/192/35 
f 104/193/28 86/203/28 108/204/32 102/194/32 
f 83/159/16 101/196/16 106/197/31 84/160/26 
f 86/166/28 104/198/28 105/195/29 81/155/36 
f 107/199/15 74/205/14 73/153/12 82/156/34 
f 83/200/16 75/206/17 74/207/14 107/201/15 
f 108/202/32 48/208/6 47/161/13 85/162/22 
f 86/203/28 45/209/11 48/210/6 108/204/32 
s 1
f 51/211/29 78/212/33 58/213/31 80/214/35 
f 70/215/22 95/216/26 64/217/34 94/218/36 
f 91/219/22 97/220/26 88/221/34 98/222/36 
f 85/223/22 84/224/26 82/225/34 81/226/36 
f 106/227/31 103/228/35 105/229/29 100/230/33 
f 96/231/31 69/232/35 93/233/29 63/234/33 
s off
f 58/235/31 78/236/33 64/237/34 95/238/26 
f 96/239/31 63/240/33 88/241/34 97/242/26 
f 106/243/31 100/244/33 82/245/34 84/246/26 
f 91/247/22 98/248/36 93/249/29 69/250/35 
f 85/251/22 81/252/36 105/253/29 103/254/35 
f 51/255/29 80/256/35 70/257/22 94/258/36 
f 109/259/37 110/260/38 111/261/39 112/262/37 
f 113/263/40 114/264/10 115/265/10 116/266/40 
f 114/267/10 117/268/19 118/269/41 115/270/10 
f 119/271/42 109/272/37 112/273/37 120/274/42 
f 121/275/38 122/276/43 123/277/44 124/278/45 
f 125/279/19 126/280/46 127/281/47 128/282/48 
f 115/265/10 129/283/10 130/284/40 116/266/40 
f 112/273/37 131/285/49 132/286/20 120/274/42 
f 116/287/40 130/288/40 133/289/23 134/290/50 
f 120/291/42 132/292/20 135/293/51 136/294/52 
f 133/289/23 137/295/38 138/296/38 139/297/38 140/298/27 
f 129/283/10 141/299/10 142/300/40 130/284/40 
f 135/293/51 143/301/19 144/302/19 145/303/19 146/304/53 
f 131/285/49 147/305/49 148/306/20 132/286/20 
f 130/288/40 142/307/40 137/295/38 133/289/23 
f 132/292/20 148/308/20 143/301/19 135/293/51 
f 117/268/19 149/309/54 150/310/55 118/269/41 
f 151/311/38 113/312/40 116/287/40 134/290/50 
f 146/304/53 129/313/10 115/270/10 118/269/41 
f 145/303/19 141/314/10 129/313/10 146/304/53 
f 110/260/38 152/315/56 153/316/57 111/261/39 
f 154/317/19 119/318/42 120/291/42 136/294/52 
f 140/298/27 131/319/49 112/262/37 111/261/39 
f 139/297/38 147/320/49 131/319/49 140/298/27 
s 1
f 124/321/45 123/322/44 150/323/55 128/324/48 
s 2
f 128/324/48 127/325/47 153/326/57 124/321/45 
s 1
f 135/327/51 146/328/53 133/329/23 140/330/27 
s off
f 118/331/41 134/332/50 133/333/23 146/334/53 
f 111/335/39 136/336/52 135/337/51 140/338/27 
f 126/280/46 154/317/19 136/294/52 127/281/47 
f 152/315/56 121/275/38 124/278/45 153/316/57 
s 2
f 127/325/47 136/336/52 111/335/39 153/326/57 
s off
f 122/276/43 151/311/38 134/290/50 123/277/44 
f 149/309/54 125/279/19 128/282/48 150/310/55 
s 1
f 123/322/44 134/332/50 118/331/41 150/323/55 
s 8
f 155/339/1 156/340/11 157/341/58 158/342/59 
s off
f 159/343/2 160/344/12 156/345/11 155/346/1 
f 160/347/12 161/348/7 157/349/58 156/350/11 
f 161/351/7 162/352/60 158/353/59 157/354/58 
f 162/355/60 159/356/2 155/357/1 158/358/59 
s 8
f 163/359/61 164/360/62 165/361/63 166/362/64 
s off
f 167/363/65 168/364/66 169/365/67 170/366/68 
f 168/367/66 171/368/69 172/369/70 169/370/67 
f 171/371/69 173/372/71 174/373/72 172/374/70 
f 173/375/71 167/376/65 170/377/68 174/378/72 
f 169/365/67 164/379/62 163/380/61 170/366/68 
f 172/369/70 165/381/63 164/382/62 169/370/67 
f 174/373/72 166/362/64 165/361/63 172/374/70 
f 170/377/68 163/383/61 166/384/64 174/378/72 
s 8
f 175/385/61 176/386/62 177/387/63 178/388/64 
s off
f 179/389/65 180/390/66 181/391/67 182/392/68 
f 180/393/66 183/394/69 184/395/70 181/396/67 
f 183/397/69 185/398/71 186/399/72 184/400/70 
f 185/401/71 179/402/65 182/403/68 186/404/72 
f 181/391/67 176/405/62 175/406/61 182/392/68 
f 184/395/70 177/407/63 176/408/62 181/396/67 
f 186/399/72 178/388/64 177/387/63 184/400/70 
f 182/403/68 175/409/61 178/410/64 186/404/72 
s 8
f 187/411/61 188/412/62 189/413/63 190/414/64 
s off
f 191/415/65 192/416/66 193/417/67 194/418/68 
f 192/419/66 195/420/69 196/421/70 193/422/67 
f 195/423/69 197/424/71 198/425/72 196/426/70 
f 197/427/71 191/428/65 194/429/68 198/430/72 
f 193/417/67 188/431/62 187/432/61 194/418/68 
f 196/421/70 189/433/63 188/434/62 193/422/67 
f 198/425/72 190/414/64 189/413/63 196/426/70 
f 194/429/68 187/435/61 190/436/64 198/430/72 
s 8
f 199/437/61 200/438/73 201/439/63 202/440/64 
s off
f 203/441/65 204/442/74 205/443/75 206/444/68 
f 204/445/74 207/446/69 208/447/70 205/448/75 
f 207/449/69 209/450/71 210/451/72 208/452/70 
f 209/453/71 203/454/65 206/455/68 210/456/72 
f 205/443/75 200/457/73 199/458/61 206/444/68 
f 208/447/70 201/459/63 200/460/73 205/448/75 
f 210/451/72 202/440/64 201/439/63 208/452/70 
f 206/455/68 199/461/61 202/462/64 210/456/72 
# 183 polygons

