# Blender 4.0.2
# www.blender.org
mtllib treebody_1.mtl
o Cube.001
v -0.065132 -0.137500 0.093194
v -0.019477 0.204868 0.074718
v -0.065132 -0.137500 -0.095670
v -0.017767 0.207965 -0.082506
v 0.142657 -0.137500 0.093194
v 0.151825 0.244524 0.076958
v 0.142657 -0.137500 -0.095670
v 0.153607 0.247646 -0.081030
v 0.032289 0.758505 0.082734
v 0.034054 0.761967 -0.050072
v 0.166809 0.746878 -0.048047
v 0.165235 0.746326 0.084758
v 0.073534 1.285898 0.085424
v 0.071657 1.288989 -0.049006
v 0.219452 1.280176 -0.050787
v 0.221329 1.277085 0.083643
v 0.072949 2.950903 0.033232
v 0.072949 2.950903 0.001405
v 0.107967 2.950903 0.001405
v 0.107967 2.950903 0.033232
v 0.163710 2.412203 -0.032118
v 0.164648 2.434492 0.058438
v 0.073242 2.438899 0.059329
v 0.076957 2.424891 -0.031249
v 0.192989 1.813206 0.071040
v 0.071981 1.822135 -0.036403
v 0.191581 1.815524 -0.037740
v 0.073388 1.819815 0.072377
v 0.177645 2.125781 -0.031215
v 0.073315 2.129357 0.065852
v 0.178819 2.123848 0.064740
v 0.072142 2.131289 -0.030103
v 0.163638 2.304859 -0.035299
v 0.073279 2.284127 0.062591
v 0.171734 2.279170 0.061588
v 0.084542 2.290921 -0.034322
v 0.152810 2.516072 -0.412785
v 0.154645 2.529564 -0.363189
v 0.091004 2.539186 -0.361280
v 0.098608 2.498683 -0.410637
v 0.129257 2.730161 -0.640758
v 0.132719 2.731622 -0.621016
v 0.116356 2.724933 -0.604412
v 0.111924 2.716686 -0.622839
v -0.130800 -0.137500 -0.001113
v -0.061762 0.206416 -0.005451
v 0.177638 -0.137500 -0.001113
v 0.192570 0.246085 -0.002415
v -0.017179 0.760235 0.015802
v 0.180022 0.746602 0.019107
v 0.055127 1.287444 0.018933
v 0.274512 1.278630 0.016024
v 0.055653 2.950903 0.017478
v 0.107633 2.950903 0.017478
v 0.055389 2.439672 0.018206
v 0.191073 2.435264 0.016751
v 0.232792 1.814365 0.016388
v 0.055259 1.820975 0.018570
v 0.211932 2.124815 0.016570
v 0.055324 2.130323 0.018388
v 0.197311 2.280040 0.016818
v 0.055357 2.284997 0.018297
v 0.023419 -0.137500 -0.155332
v 0.066700 0.227806 -0.132628
v 0.023419 -0.137500 0.153106
v 0.064109 0.224696 0.124762
v 0.082660 0.754423 -0.090989
v 0.080182 0.752416 0.125898
v 0.163426 1.284583 -0.092292
v 0.166213 1.281491 0.127250
v 0.081642 2.950903 -0.008511
v 0.081642 2.950903 0.043469
v 0.122534 2.450314 -0.057192
v 0.123928 2.436696 0.085359
v 0.145070 1.816511 0.106304
v 0.142980 1.818829 -0.071347
v 0.134499 2.126603 0.095831
v 0.132757 2.128535 -0.060875
v 0.129214 2.281649 0.090595
v 0.127646 2.283388 -0.055638
v 0.120497 2.556492 -0.363173
v 0.123070 2.497258 -0.413904
v 0.124227 2.739139 -0.620000
v 0.118393 2.726577 -0.639569
v 0.081642 2.950903 0.017478
v 0.023419 -0.137500 -0.001113
v 0.185904 1.968527 0.067890
v 0.072061 1.976712 -0.033253
v 0.184614 1.970653 -0.034477
v 0.073352 1.974587 0.069115
v 0.055291 1.975649 0.018479
v 0.222362 1.969591 0.016479
v 0.137869 1.973682 -0.066111
v 0.139785 1.971557 0.101067
v 0.181129 2.048217 -0.032847
v 0.073333 2.051972 0.067484
v 0.055308 2.052987 0.018433
v 0.217147 2.047202 0.016524
v 0.135313 2.051108 -0.063492
v 0.137142 2.049080 0.098450
v 0.182361 2.046188 0.066315
v 0.072101 2.054000 -0.031678
v 0.207160 1.502563 0.077341
v 0.071818 1.512979 -0.042704
v 0.205517 1.505268 -0.044263
v 0.073462 1.510273 0.078900
v 0.055193 1.511627 0.018751
v 0.253652 1.503915 0.016206
v 0.153203 1.509124 -0.081819
v 0.155642 1.506419 0.116777
v 0.198548 1.660396 -0.041001
v 0.073425 1.665045 0.075638
v 0.055226 1.666300 0.018660
v 0.243222 1.659140 0.016297
v 0.148092 1.663977 -0.076583
v 0.150356 1.661465 0.111540
v 0.200075 1.657884 0.074191
v 0.071899 1.667556 -0.039554
v 0.203617 1.580224 0.075766
v 0.071859 1.590268 -0.041129
v 0.202033 1.582832 -0.042633
v 0.073444 1.587660 0.077270
v 0.055210 1.588963 0.018706
v 0.248436 1.581527 0.016251
v 0.150647 1.586550 -0.079201
v 0.152999 1.583942 0.114158
v -0.277001 1.720373 -0.088265
v -0.276991 1.765657 -0.088291
v -0.267229 1.766392 -0.122378
v -0.267252 1.721136 -0.123300
v -0.543725 1.921441 -0.173342
v -0.543720 1.942946 -0.173354
v -0.539084 1.943295 -0.189541
v -0.539095 1.921803 -0.189979
v 0.331032 2.214463 0.283458
v 0.313647 2.216441 0.318246
v 0.316211 2.160753 0.318998
v 0.333810 2.158674 0.283243
v 0.569259 2.361254 0.534803
v 0.560432 2.362259 0.552463
v 0.561734 2.333988 0.552845
v 0.570668 2.332933 0.534694
v 0.450145 2.287859 0.409131
v 0.452238 2.245804 0.408969
v 0.437040 2.289350 0.435355
v 0.438972 2.247370 0.435922
v 0.258791 2.551415 0.665675
v 0.240830 2.540376 0.661735
v 0.237939 2.526796 0.675399
v 0.256136 2.538944 0.678223
v 0.481846 2.267586 0.440400
v 0.469663 2.269024 0.465152
v 0.479923 2.306208 0.440549
v 0.467887 2.307577 0.464632
v 0.191112 2.683185 0.748483
v 0.193767 2.695657 0.735936
v 0.175806 2.684619 0.731995
v 0.172915 2.671037 0.745658
v 0.159177 2.470884 -0.197653
v 0.083981 2.482039 -0.196265
v 0.158224 2.410465 -0.224042
v 0.091574 2.394802 -0.222480
v 0.125358 2.390322 -0.234771
v 0.126087 2.499847 -0.193416
v 0.148045 2.490474 -0.265899
v 0.156417 2.445722 -0.287052
v 0.093923 2.429482 -0.285295
v 0.124594 2.426023 -0.294574
v 0.121176 2.521127 -0.261258
v 0.086326 2.501117 -0.251354
v 0.494234 2.574587 -0.268807
v 0.494645 2.587498 -0.243395
v 0.489833 2.612792 -0.260787
v 0.493452 2.603671 -0.280146
v 0.785771 2.849627 -0.263945
v 0.786183 2.862539 -0.238533
v 0.781370 2.887832 -0.255925
v 0.784990 2.878711 -0.275284
vn -0.9901 0.1390 -0.0183
vn -0.7045 0.1151 -0.7003
vn -0.7102 0.1332 -0.6913
vn -0.9838 0.1795 -0.0022
vn -0.0323 0.0727 -0.9968
vn 0.7481 0.0156 -0.6634
vn 0.7316 -0.0072 -0.6817
vn -0.0768 0.0739 -0.9943
vn 0.9997 -0.0239 0.0045
vn 0.9999 -0.0099 0.0020
vn 0.7406 -0.0096 0.6719
vn 0.7235 0.0020 0.6903
vn -0.0838 0.0870 0.9927
vn -0.0487 0.0418 0.9979
vn -0.7182 0.0984 0.6889
vn -0.7136 0.1437 0.6857
vn -0.0000 -1.0000 -0.0000
vn -0.7270 0.0622 0.6838
vn -0.9950 0.0994 -0.0001
vn 0.7328 -0.0588 0.6780
vn 0.7245 -0.0179 0.6890
vn 0.0923 0.0213 0.9955
vn -0.0570 0.0014 0.9984
vn -0.7213 0.0877 -0.6871
vn -0.0470 0.0410 -0.9981
vn 0.7459 -0.0318 -0.6653
vn 0.9977 -0.0670 0.0114
vn 0.9950 0.1000 0.0034
vn 0.8148 0.0780 -0.5744
vn 0.7338 0.1290 -0.6670
vn 0.9894 0.1453 -0.0046
vn -0.7459 0.0477 -0.6644
vn 0.0791 0.0210 -0.9966
vn 0.7136 -0.0169 -0.7004
vn 0.9995 -0.0308 -0.0047
vn -0.7361 0.0484 0.6751
vn -0.9985 0.0532 0.0094
vn -0.0000 1.0000 -0.0000
vn -0.7182 0.0184 0.6956
vn -0.7086 0.0248 0.7052
vn -0.9999 0.0155 0.0076
vn -0.9999 0.0049 -0.0152
vn 0.0288 0.0584 0.9979
vn 0.7296 0.0827 0.6789
vn 0.7269 0.1236 0.6755
vn -0.0496 0.0779 0.9957
vn 0.0198 0.0957 -0.9952
vn -0.8145 0.0065 -0.5802
vn -0.7332 0.0269 -0.6794
vn -0.0666 0.0898 -0.9937
vn 0.1502 0.9412 0.3027
vn 0.8393 0.5213 0.1545
vn 0.9096 0.3717 0.1856
vn 0.1152 0.8656 0.4873
vn 0.0681 0.0357 0.9970
vn 0.7228 0.0500 0.6892
vn -0.9996 0.0062 -0.0281
vn -0.7345 0.0112 0.6785
vn 0.7734 0.0392 -0.6327
vn 0.9981 0.0613 -0.0074
vn 0.6906 0.0484 -0.7217
vn 0.6913 0.0485 -0.7209
vn 0.9979 0.0638 -0.0098
vn 0.9979 0.0640 -0.0100
vn -0.9932 0.0034 0.1162
vn -0.7500 0.0114 0.6613
vn -0.7470 0.0114 0.6647
vn -0.9999 0.0035 0.0150
vn 0.1040 0.0368 0.9939
vn 0.7083 0.0488 0.7042
vn 0.7087 0.0489 0.7038
vn 0.0972 0.0366 0.9946
vn -0.6610 0.0136 -0.7503
vn -0.7618 0.0111 -0.6478
vn 0.0749 0.0359 -0.9965
vn 0.0813 0.0361 -0.9960
vn 0.6929 0.0488 -0.7193
vn 0.6964 0.0499 -0.7159
vn 0.9975 0.0700 -0.0098
vn 0.9979 0.0635 -0.0094
vn -0.9999 0.0038 0.0145
vn -0.7412 0.0113 0.6712
vn -0.7385 0.0112 0.6741
vn -0.9999 0.0111 -0.0052
vn -0.7244 0.6041 0.3322
vn -0.7096 0.6131 0.3472
vn 0.3516 0.6969 -0.6251
vn 0.4971 0.6284 -0.5984
vn -0.7556 0.0110 -0.6550
vn -0.7437 0.0173 -0.6683
vn 0.0505 0.0308 -0.9983
vn 0.0628 0.0355 -0.9974
vn -0.1083 0.0303 0.9937
vn 0.7593 0.0545 0.6484
vn -0.7906 0.0075 -0.6123
vn 0.0800 0.0270 -0.9964
vn 0.8276 -0.4136 -0.3795
vn 0.7102 -0.4730 -0.5214
vn 0.9125 0.3572 0.1994
vn 0.7827 -0.5365 -0.3156
vn 0.1733 -0.8502 -0.4972
vn -0.7527 -0.5618 -0.3433
vn -0.7401 -0.5191 -0.4275
vn 0.1190 -0.7875 -0.6048
vn -0.8648 0.4840 0.1338
vn -0.8868 0.4307 0.1674
vn -0.8751 0.4831 -0.0281
vn -0.5255 0.8237 -0.2128
vn -0.4402 0.8646 -0.2424
vn -0.5878 -0.5472 -0.5959
vn 0.2525 -0.6791 -0.6893
vn 0.3762 0.7535 0.5392
vn -0.7692 0.5400 0.3416
vn 0.7468 0.0501 0.6632
vn 0.1457 0.9204 -0.3628
vn -0.1197 0.0299 0.9924
vn 0.0898 0.0364 0.9953
vn -0.7437 0.0113 0.6684
vn 0.0681 0.0357 -0.9970
vn 0.6922 0.0487 -0.7201
vn 0.9979 0.0636 -0.0096
vn 0.7092 0.0490 0.7033
vn -0.9999 0.0037 0.0148
vn -0.7583 0.0111 -0.6519
vn 0.1125 0.0440 0.9927
vn -0.7552 0.0136 0.6554
vn 0.0891 0.0431 -0.9951
vn 0.6895 0.0574 -0.7220
vn 0.9970 0.0766 -0.0101
vn 0.7077 0.0580 0.7041
vn -0.9999 0.0037 0.0156
vn -0.7704 0.0132 -0.6375
vn -0.7521 0.0114 0.6590
vn 0.1085 0.0369 0.9934
vn 0.0854 0.0362 -0.9957
vn 0.6901 0.0483 -0.7221
vn 0.7081 0.0487 0.7044
vn 0.9979 0.0641 -0.0101
vn 0.3529 0.6349 -0.6872
vn -0.1116 -0.7196 -0.6854
vn -0.1622 -0.6320 -0.7578
vn 0.4456 0.6335 -0.6326
vn -0.6636 0.0136 -0.7480
vn -0.9937 0.0032 0.1124
vn -0.5352 -0.6488 0.5410
vn -0.5735 -0.4798 0.6640
vn -0.1222 -0.4581 -0.8805
vn -0.4532 -0.7349 0.5045
vn -0.0710 0.6112 0.7883
vn 0.0325 0.6124 0.7899
vn -0.9624 0.0031 -0.2716
vn 0.5684 0.7278 -0.3837
vn 0.2703 0.7156 0.6441
vn 0.4971 -0.2355 0.8351
vn 0.6702 -0.0583 0.7399
vn -0.7097 -0.5402 0.4523
vn -0.7140 -0.6216 0.3223
vn 0.7405 -0.6331 -0.2256
vn 0.6932 -0.7088 -0.1302
vn -0.2993 -0.7235 0.6221
vn -0.2994 -0.6671 0.6821
vn 0.8960 0.0450 0.4418
vn 0.2758 0.6930 -0.6661
vn 0.0996 0.8152 -0.5705
vn 0.7596 -0.5634 -0.3251
vn 0.7545 -0.5785 -0.3098
vn -0.6283 0.7537 0.1927
vn -0.6944 0.6366 0.3353
vn 0.1394 -0.8600 0.4908
vn -0.3753 -0.5116 0.7730
vn -0.0361 -0.7845 0.6191
vn -0.5477 0.8347 0.0573
vn -0.5230 0.6572 0.5427
vn 0.7748 0.6306 0.0455
vn 0.7327 0.6236 -0.2725
vn 0.2448 -0.4843 0.8400
vn -0.5832 -0.7227 0.3709
vn -0.6164 0.2041 -0.7605
vn -0.5715 0.2138 -0.7922
vn -0.5094 0.1802 -0.8414
vn 0.7034 0.5414 -0.4606
vn 0.1398 0.9354 0.3249
vn 0.1806 0.9410 0.2863
vn -0.8517 0.5045 0.1418
vn -0.9491 0.3077 0.0670
vn 0.1297 -0.8553 -0.5017
vn 0.1592 -0.8517 -0.4992
vn 0.8034 -0.5069 -0.3124
vn 0.8620 -0.4293 -0.2695
vn -0.7807 -0.5323 -0.3272
vn -0.7679 -0.5463 -0.3345
vn 0.9597 0.2706 0.0754
vn 0.8445 0.5182 0.1351
vn -0.3165 0.9099 -0.2682
vn 0.0978 0.1148 0.9886
vn 0.2143 -0.0482 0.9756
vn -0.5428 0.8381 0.0542
vn -0.6809 0.7193 0.1381
vn -0.4036 0.4420 -0.8011
vn -0.0216 0.0464 -0.9987
vn 0.4487 -0.8911 0.0676
vn 0.5407 -0.8368 -0.0864
vn 0.1101 -0.2244 -0.9683
vn 0.9937 0.1110 0.0166
vn -0.0482 0.0335 0.9983
vn 0.6259 -0.6560 -0.4217
vt 0.237151 0.886766
vt 0.265427 0.882219
vt 0.286192 0.998047
vt 0.250332 0.998047
vt 0.053107 0.880592
vt 0.085749 0.874121
vt 0.078386 0.998047
vt 0.036021 0.998047
vt 0.110286 0.998047
vt 0.114015 0.874386
vt 0.142863 0.874914
vt 0.141760 0.998047
vt 0.182741 0.998047
vt 0.175340 0.881882
vt 0.207381 0.888231
vt 0.215242 0.998047
vt 0.580366 0.050748
vt 0.608080 0.009615
vt 0.626947 0.035893
vt 0.621499 0.078462
vt 0.191130 0.709610
vt 0.217989 0.709509
vt 0.139303 0.711728
vt 0.138909 0.540295
vt 0.160808 0.539513
vt 0.170182 0.710996
vt 0.020936 0.884682
vt 0.043332 0.709861
vt 0.063828 0.712002
vt 0.094717 0.712492
vt 0.117190 0.711713
vt 0.115114 0.171017
vt 0.096499 0.176355
vt 0.121657 0.001953
vt 0.126890 0.001953
vt 0.031562 0.540188
vt 0.063859 0.539879
vt 0.085704 0.540056
vt 0.112417 0.538747
vt 0.192869 0.538699
vt 0.214898 0.537805
vt 0.049093 0.017155
vt 0.044789 0.017506
vt 0.050699 0.011595
vt 0.056609 0.017505
vt 0.164088 0.166483
vt 0.145557 0.001953
vt 0.153127 0.001953
vt 0.178215 0.164234
vt 0.146205 0.169419
vt 0.130780 0.170961
vt 0.132018 0.001953
vt 0.141212 0.001953
vt 0.083785 0.161242
vt 0.065247 0.164061
vt 0.108489 0.001953
vt 0.112605 0.001953
vt 0.254147 0.080165
vt 0.266951 0.077506
vt 0.269989 0.112153
vt 0.256628 0.117410
vt 0.148216 0.218764
vt 0.131548 0.220396
vt 0.183672 0.214037
vt 0.168341 0.216032
vt 0.095011 0.211578
vt 0.114744 0.220520
vt 0.089532 0.419157
vt 0.091724 0.369288
vt 0.113674 0.370728
vt 0.113135 0.420590
vt 0.203329 0.412901
vt 0.184177 0.415171
vt 0.180122 0.365274
vt 0.198294 0.363123
vt 0.156849 0.418391
vt 0.136682 0.420303
vt 0.135557 0.370416
vt 0.154720 0.368484
vt 0.042578 0.412973
vt 0.047509 0.363337
vt 0.072763 0.367008
vt 0.069637 0.416865
vt 0.094633 0.294397
vt 0.095607 0.269405
vt 0.114444 0.270764
vt 0.114282 0.295692
vt 0.191049 0.288594
vt 0.174328 0.290581
vt 0.172377 0.265695
vt 0.188629 0.263739
vt 0.496926 0.215589
vt 0.501785 0.117466
vt 0.513209 0.122585
vt 0.514811 0.215589
vt 0.054409 0.289075
vt 0.056696 0.264289
vt 0.078384 0.267385
vt 0.076988 0.292303
vt 0.150576 0.268551
vt 0.133216 0.270350
vt 0.066087 0.213571
vt 0.081248 0.217556
vt 0.282704 0.123285
vt 0.269747 0.225245
vt 0.265518 0.220175
vt 0.282789 0.077327
vt 0.207036 0.085635
vt 0.216629 0.080916
vt 0.226838 0.123994
vt 0.219365 0.126950
vt 0.241619 0.075549
vt 0.245699 0.114560
vt 0.076234 0.003624
vt 0.082669 0.001953
vt 0.082374 0.009188
vt 0.074710 0.010033
vt 0.253515 0.218510
vt 0.252851 0.225088
vt 0.262060 0.221481
vt 0.259098 0.214668
vt 0.205051 0.261779
vt 0.202729 0.209993
vt 0.207958 0.286593
vt 0.133852 0.295363
vt 0.222678 0.410479
vt 0.216674 0.360915
vt 0.196084 0.166526
vt 0.160713 0.001953
vt 0.056609 0.005685
vt 0.056331 0.009917
vt 0.244660 0.705882
vt 0.237297 0.535666
vt 0.576574 0.001953
vt 0.539233 0.023035
vt 0.539233 0.057374
vt 0.552652 0.091882
vt 0.048368 0.001953
vt 0.044789 0.005685
vt 0.210172 0.133734
vt 0.249774 0.227242
vt 0.076230 0.013405
vt 0.082669 0.012840
vt 0.195306 0.090291
vt 0.151650 0.293532
vt 0.041130 0.009191
vt 0.589607 0.091314
vt 0.001953 0.998047
vt 0.152679 0.318512
vt 0.176257 0.315478
vt 0.075609 0.317208
vt 0.093695 0.319361
vt 0.114103 0.320695
vt 0.134432 0.320379
vt 0.193456 0.313438
vt 0.210854 0.311381
vt 0.052136 0.313842
vt 0.159044 0.468092
vt 0.188226 0.465380
vt 0.066129 0.467001
vt 0.087128 0.468741
vt 0.112527 0.469696
vt 0.137829 0.469643
vt 0.208388 0.463554
vt 0.228775 0.461502
vt 0.037288 0.463576
vt 0.186282 0.440249
vt 0.157960 0.443271
vt 0.067895 0.441882
vt 0.088304 0.444014
vt 0.137264 0.445073
vt 0.112815 0.445294
vt 0.466446 0.001953
vt 0.491203 0.001953
vt 0.471961 0.117709
vt 0.458390 0.122714
vt 0.039929 0.438059
vt 0.206066 0.438276
vt 0.226130 0.436476
vt 0.433459 0.116599
vt 0.441957 0.223539
vt 0.436308 0.223539
vt 0.421704 0.118171
vt 0.422283 0.001953
vt 0.402115 0.001953
vt 0.446496 0.001953
vt 0.446735 0.122385
vt 0.001953 0.002071
vt 0.007507 0.001953
vt 0.007507 0.008868
vt 0.002092 0.008983
vt 0.452934 0.223539
vt 0.447576 0.223539
vt 0.458688 0.223539
vt 0.030436 0.059353
vt 0.029549 0.001953
vt 0.036803 0.001953
vt 0.037856 0.059329
vt 0.530348 0.128018
vt 0.539092 0.215589
vt 0.472073 0.215589
vt 0.484571 0.122079
vt 0.556955 0.215589
vt 0.541594 0.121699
vt 0.614788 0.002459
vt 0.621284 0.001953
vt 0.621284 0.011075
vt 0.614944 0.011560
vt 0.512583 0.045546
vt 0.511690 0.001953
vt 0.520406 0.001953
vt 0.524097 0.049867
vt 0.504222 0.043029
vt 0.505716 0.001953
vt 0.532075 0.046121
vt 0.526625 0.001953
vt 0.491032 0.062046
vt 0.503804 0.057707
vt 0.525282 0.065551
vt 0.534198 0.061578
vt 0.512734 0.060753
vt 0.625981 0.004562
vt 0.631677 0.001953
vt 0.631677 0.009048
vt 0.626447 0.011443
vt 0.028106 0.178105
vt 0.024520 0.059041
vt 0.037642 0.178105
vt 0.053281 0.178105
vt 0.012366 0.178105
vt 0.001953 0.178105
vt 0.010979 0.059935
vt 0.017418 0.059556
vt 0.492372 0.047028
vt 0.497187 0.001953
vt 0.016952 0.001953
vt 0.023857 0.001953
vt 0.010636 0.001953
vt 0.254737 0.001953
vt 0.253419 0.056030
vt 0.240282 0.055671
vt 0.237414 0.001953
vt 0.182232 0.001953
vt 0.200211 0.064877
vt 0.187598 0.068809
vt 0.167055 0.001953
vt 0.210637 0.059222
vt 0.195974 0.001953
vt 0.273947 0.001953
vt 0.309071 0.001953
vt 0.285685 0.060624
vt 0.265785 0.054017
vt 0.352543 0.001953
vt 0.376401 0.001953
vt 0.366974 0.119883
vt 0.357346 0.123003
vt 0.358466 0.241144
vt 0.351700 0.241144
vt 0.350157 0.122713
vt 0.397557 0.001953
vt 0.376011 0.118425
vt 0.336231 0.001953
vt 0.341161 0.118386
vt 0.312568 0.001953
vt 0.060718 0.011756
vt 0.062900 0.001953
vt 0.069806 0.002976
vt 0.069806 0.012970
vt 0.367161 0.241144
vt 0.344180 0.241144
vt 0.375822 0.241144
s 1
usemtl Material_#25
f 46/1/1 4/2/2 3/3/3 45/4/4
f 64/5/5 8/6/6 7/7/7 63/8/8
f 47/9/9 48/10/10 6/11/11 5/12/12
f 65/13/13 66/14/14 2/15/15 1/16/16
f 86/17/17 47/18/17 5/19/17 65/20/17
f 2/15/15 9/21/18 49/22/19 46/1/1
f 12/23/20 16/24/21 70/25/22 68/26/23
f 6/11/11 12/23/20 68/26/23 66/14/14
f 64/5/5 4/27/2 10/28/24 67/29/25
f 48/10/10 8/6/6 11/30/26 50/31/27
f 56/32/28 21/33/29 19/34/30 54/35/31
f 67/29/25 10/28/24 14/36/32 69/37/33
f 50/31/27 11/30/26 15/38/34 52/39/35
f 9/21/18 13/40/36 51/41/37 49/22/19
f 17/42/38 72/43/38 85/44/38 53/45/38
f 23/46/39 17/47/40 53/48/41 55/49/42
f 74/50/43 22/51/44 20/52/45 72/53/46
f 73/54/47 24/55/48 18/56/49 71/57/50
f 169/58/51 165/59/52 38/60/53 81/61/54
f 79/62/55 35/63/56 22/51/44 74/50/43
f 62/64/57 34/65/58 23/46/39 55/49/42
f 33/66/59 21/33/29 56/32/28 61/67/60
f 111/68/61 27/69/62 57/70/63 114/71/64
f 113/72/65 112/73/66 28/74/67 58/75/68
f 116/76/69 117/77/70 25/78/71 75/79/72
f 118/80/73 26/81/74 76/82/75 115/83/76
f 95/84/77 29/85/78 59/86/79 98/87/80
f 97/88/81 96/89/82 30/90/83 60/91/84
f 77/92/85 136/93/86 135/94/87 31/95/88
f 102/96/89 32/97/90 78/98/91 99/99/92
f 29/85/78 33/66/59 61/67/60 59/86/79
f 60/91/84 30/90/83 34/65/58 62/64/57
f 77/100/93 31/101/94 35/63/56 79/62/55
f 32/97/90 36/102/95 80/103/96 78/98/91
f 37/104/97 41/105/98 42/106/99 38/60/53
f 166/107/100 37/104/97 38/60/53 165/59/52
f 168/108/101 167/109/102 40/110/103 82/111/104
f 167/109/102 170/112/105 39/113/106 40/110/103
f 44/114/107 43/115/107 83/116/108 84/117/109
f 82/111/104 40/110/103 44/118/110 84/119/111
f 81/61/54 38/60/53 42/106/99 83/120/112
f 40/110/103 39/113/106 43/121/113 44/118/110
f 32/122/90 60/91/84 62/64/57 36/123/95
f 31/101/94 59/86/79 61/67/60 35/63/56
f 102/124/89 97/88/81 60/91/84 32/122/90
f 101/125/114 98/87/80 59/86/79 31/101/94
f 118/126/73 113/72/65 58/75/68 26/127/74
f 117/77/70 114/71/64 57/70/63 25/78/71
f 61/67/60 56/32/28 22/51/44 35/63/56
f 62/64/57 55/49/42 24/128/48 36/123/95
f 55/49/42 53/48/41 18/129/49 24/128/48
f 85/44/38 71/130/38 18/131/38 53/45/38
f 10/132/24 49/22/19 51/41/37 14/133/32
f 50/31/27 52/39/35 16/24/21 12/23/20
f 56/32/28 54/35/31 20/52/45 22/51/44
f 48/10/10 50/31/27 12/23/20 6/11/11
f 4/2/2 46/1/1 49/22/19 10/132/24
f 7/134/17 47/18/17 86/17/17 63/135/17
f 8/6/6 48/10/10 47/9/9 7/7/7
f 1/16/16 2/15/15 46/1/1 45/4/4
f 3/136/17 63/135/17 86/17/17 45/137/17
f 19/138/38 71/130/38 85/44/38 54/139/38
f 81/61/54 83/120/112 43/121/113 39/113/106
f 37/140/97 82/111/104 84/119/111 41/141/98
f 41/142/115 84/117/109 83/116/108 42/143/115
f 166/144/100 168/108/101 82/111/104 37/140/97
f 29/85/78 78/98/91 80/103/96 33/66/59
f 30/90/83 77/100/93 79/62/55 34/65/58
f 99/99/92 78/98/91 29/85/78 95/84/77
f 96/89/82 100/145/116 77/100/93 30/90/83
f 115/83/76 76/82/75 27/69/62 111/68/61
f 112/73/66 116/76/69 75/79/72 28/74/67
f 34/65/58 79/62/55 74/50/43 23/46/39
f 169/58/51 81/61/54 39/113/106 170/112/105
f 73/54/47 71/57/50 19/34/30 21/33/29
f 23/46/39 74/50/43 72/53/46 17/47/40
f 85/44/38 72/43/38 20/146/38 54/139/38
f 11/30/26 67/29/25 69/37/33 15/38/34
f 8/6/6 64/5/5 67/29/25 11/30/26
f 66/14/14 68/26/23 9/21/18 2/15/15
f 68/26/23 70/25/22 13/40/36 9/21/18
f 86/17/17 65/20/17 1/147/17 45/137/17
f 5/12/12 6/11/11 66/14/14 65/13/13
f 4/27/2 64/5/5 63/8/8 3/148/3
f 28/74/67 75/79/72 94/149/117 90/150/118
f 76/82/75 93/151/119 89/152/120 27/69/62
f 25/78/71 57/70/63 92/153/121 87/154/122
f 26/127/74 58/75/68 91/155/123 88/156/124
f 26/81/74 88/157/124 93/151/119 76/82/75
f 75/79/72 25/78/71 87/154/122 94/149/117
f 58/75/68 28/74/67 90/150/118 91/155/123
f 27/69/62 89/152/120 92/153/121 57/70/63
f 90/150/118 94/149/117 100/145/116 96/89/82
f 93/151/119 99/99/92 95/84/77 89/152/120
f 87/154/122 92/153/121 98/87/80 101/125/114
f 88/156/124 91/155/123 97/88/81 102/124/89
f 88/157/124 102/96/89 99/99/92 93/151/119
f 94/149/117 87/154/122 101/125/114 100/145/116
f 91/155/123 90/150/118 96/89/82 97/88/81
f 89/152/120 95/84/77 98/87/80 92/153/121
f 13/40/36 70/25/22 110/158/125 106/159/126
f 69/37/33 109/160/127 105/161/128 15/38/34
f 16/24/21 52/39/35 108/162/129 103/163/130
f 51/41/37 107/164/131 104/165/132 14/133/32
f 14/36/32 104/166/132 109/160/127 69/37/33
f 70/25/22 16/24/21 103/163/130 110/158/125
f 51/41/37 13/40/36 106/159/126 107/164/131
f 15/38/34 105/161/128 108/162/129 52/39/35
f 122/167/133 126/168/134 116/76/69 112/73/66
f 125/169/135 115/83/76 111/68/61 121/170/136
f 119/171/137 124/172/138 114/71/64 117/77/70
f 118/173/139 120/174/140 130/175/141 129/176/142
f 120/177/143 118/80/73 115/83/76 125/169/135
f 126/168/134 119/171/137 117/77/70 116/76/69
f 123/178/144 122/167/133 112/73/66 113/72/65
f 121/170/136 111/68/61 114/71/64 124/172/138
f 105/161/128 121/170/136 124/172/138 108/162/129
f 107/164/131 106/159/126 122/167/133 123/178/144
f 110/158/125 103/163/130 119/171/137 126/168/134
f 104/166/132 120/177/143 125/169/135 109/160/127
f 104/165/132 107/164/131 123/178/144 120/179/143
f 103/163/130 108/162/129 124/172/138 119/171/137
f 109/160/127 125/169/135 121/170/136 105/161/128
f 106/159/126 110/158/125 126/168/134 122/167/133
f 127/180/145 131/181/146 134/182/147 130/183/141
f 123/184/148 127/180/145 130/183/141 120/185/140
f 113/186/149 128/187/150 127/180/145 123/184/148
f 118/173/139 129/176/142 128/187/150 113/186/149
f 134/188/151 131/189/151 132/190/151 133/191/151
f 129/176/142 133/192/152 132/193/153 128/187/150
f 129/176/142 130/175/141 134/194/147 133/192/152
f 128/187/150 132/193/153 131/181/146 127/180/145
f 150/195/154 155/196/155 158/197/156 149/198/157
f 31/95/88 135/94/87 138/199/158 101/200/159
f 77/92/85 100/201/160 137/202/161 136/93/86
f 100/203/160 101/200/159 138/199/158 137/204/161
f 141/205/162 142/206/162 139/207/162 140/208/162
f 153/209/163 139/210/164 142/211/165 151/212/166
f 154/213/167 140/214/168 139/210/164 153/209/163
f 152/215/169 151/212/166 142/211/165 141/216/170
f 136/93/86 137/202/161 146/217/171 145/218/172
f 137/204/161 138/199/158 144/219/166 146/220/171
f 136/93/86 145/218/172 143/221/163 135/94/87
f 135/94/87 143/221/163 144/219/166 138/199/158
f 157/222/173 158/223/173 155/224/173 156/225/173
f 154/226/174 147/227/175 150/195/154 152/228/176
f 152/228/176 150/195/154 149/198/157 146/229/177
f 145/230/178 146/231/177 149/232/157 148/233/179
f 143/221/163 153/209/163 151/212/166 144/219/166
f 145/218/172 154/213/167 153/209/163 143/221/163
f 146/220/171 144/219/166 151/212/166 152/215/169
f 154/226/174 145/230/178 148/233/179 147/227/175
f 154/213/167 152/234/169 141/235/170 140/214/168
f 147/227/175 148/233/179 157/236/180 156/237/181
f 147/227/175 156/237/181 155/196/155 150/195/154
f 148/233/179 149/232/157 158/238/156 157/236/180
f 73/239/182 164/240/183 160/241/184 24/242/185
f 80/243/186 163/244/187 161/245/188 33/246/189
f 24/242/185 160/241/184 162/247/190 36/248/191
f 80/243/186 36/248/191 162/247/190 163/244/187
f 21/249/192 33/250/189 161/251/188 159/252/193
f 73/239/182 21/249/192 159/252/193 164/240/183
f 164/240/183 169/58/51 170/112/105 160/241/184
f 161/245/188 163/244/187 168/108/101 166/144/100
f 160/241/184 170/112/105 167/109/102 162/247/190
f 163/244/187 162/247/190 167/109/102 168/108/101
f 165/253/194 159/254/195 172/255/196 173/256/197
f 164/240/183 159/252/193 165/59/52 169/58/51
f 173/256/197 177/257/198 178/258/199 174/259/200
f 159/254/195 161/260/201 171/261/202 172/255/196
f 166/262/203 174/259/200 171/263/202 161/264/201
f 165/253/194 173/256/197 174/259/200 166/262/203
f 175/265/204 178/266/204 177/267/204 176/268/204
f 173/256/197 172/255/196 176/269/205 177/257/198
f 174/259/200 178/258/199 175/270/206 171/263/202
f 172/255/196 171/261/202 175/271/206 176/269/205
